<svg xmlns="http://www.w3.org/2000/svg" viewBox="0 0 512 512" role="img" aria-label="AI Cybersecurity Lab Logo (animated shield, nodes, gradient, keyhole glow)">
<defs>
  <linearGradient id="g1" x1="0" y1="0" x2="1" y2="1">
    <stop offset="0%" stop-color="#16a34a">
      <animate attributeName="stop-color" values="#16a34a;#ef4444;#16a34a" dur="8s" repeatCount="indefinite"/>
    </stop>
    <stop offset="100%" stop-color="#ef4444">
      <animate attributeName="stop-color" values="#ef4444;#16a34a;#ef4444" dur="8s" repeatCount="indefinite"/>
    </stop>
  </linearGradient>
  <radialGradient id="gKey" cx="50%" cy="50%" r="50%">
    <stop offset="0%" stop-color="#16a34a" stop-opacity="0.6">
      <animate attributeName="stop-color" values="#16a34a;#ef4444;#16a34a" dur="6s" repeatCount="indefinite"/>
      <animate attributeName="stop-opacity" values="0.6;0.15;0.6" dur="3s" repeatCount="indefinite"/>
    </stop>
    <stop offset="100%" stop-color="#16a34a" stop-opacity="0">
      <animate attributeName="stop-color" values="#16a34a;#ef4444;#16a34a" dur="6s" repeatCount="indefinite"/>
    </stop>
  </radialGradient>
</defs>

<g transform="translate(256 256) scale(0.5) translate(-256 -256)">
  <path d="M256 40L416 96v132c0 100-75 158-160 204C171 386 96 328 96 228V96z"
        fill="none" stroke="url(#g1)" stroke-width="18" stroke-linejoin="round"
        stroke-dasharray="1200" stroke-dashoffset="1200">
    <animate attributeName="stroke-dashoffset" from="1200" to="0" dur="3.8s" fill="freeze"/>
  </path>

  <path d="M245 180c-34 0-60 18-60 52 0 7 1 13 3 18-18 7-31 24-31 43 0 22 15 40 35 46-1 3-1 6-1 9 0 25 20 45 45 45h9"
        fill="none" stroke="#0b1220" stroke-width="10" stroke-linecap="round" stroke-linejoin="round"/>
  <path d="M267 180c34 0 60 18 60 52 0 7-1 13-3 18 18 7 31 24 31 43 0 22-15 40-35 46 1 3 1 6 1 9 0 25-20 45-45 45h-9"
        fill="none" stroke="#0b1220" stroke-width="10" stroke-linecap="round" stroke-linejoin="round"/>

  <g fill="none" stroke="#0b1220" stroke-width="8" stroke-linecap="round" stroke-linejoin="round">
    <line x1="256" y1="240" x2="200" y2="220"/>
    <line x1="256" y1="240" x2="312" y2="220"/>
    <line x1="256" y1="280" x2="200" y2="310"/>
    <line x1="256" y1="280" x2="312" y2="310"/>
    <line x1="256" y1="220" x2="256" y2="196"/>
    <line x1="256" y1="300" x2="256" y2="324"/>
  </g>

  <g fill="url(#g1)">
    <circle cx="256" cy="240" r="9">
      <animate attributeName="r" values="9;12;9" dur="1.8s" repeatCount="indefinite"/>
      <animate attributeName="opacity" values="1;0.5;1" dur="2.4s" repeatCount="indefinite" begin="0s"/>
    </circle>
    <circle cx="200" cy="220" r="7">
      <animate attributeName="r" values="7;10;7" dur="2.1s" repeatCount="indefinite" begin="0.4s"/>
      <animate attributeName="opacity" values="1;0.35;1" dur="1.6s" repeatCount="indefinite" begin="0.4s"/>
    </circle>
    <circle cx="312" cy="220" r="7">
      <animate attributeName="r" values="7;10;7" dur="2.3s" repeatCount="indefinite" begin="0.8s"/>
      <animate attributeName="opacity" values="1;0.35;1" dur="1.9s" repeatCount="indefinite" begin="0.8s"/>
    </circle>
    <circle cx="200" cy="310" r="7">
      <animate attributeName="r" values="7;9;7" dur="1.7s" repeatCount="indefinite" begin="1.0s"/>
      <animate attributeName="opacity" values="1;0.4;1" dur="2.2s" repeatCount="indefinite" begin="1.0s"/>
    </circle>
    <circle cx="312" cy="310" r="7">
      <animate attributeName="r" values="7;9;7" dur="1.9s" repeatCount="indefinite" begin="1.3s"/>
      <animate attributeName="opacity" values="1;0.4;1" dur="2.5s" repeatCount="indefinite" begin="1.3s"/>
    </circle>
    <circle cx="256" cy="196" r="6">
      <animate attributeName="r" values="6;8;6" dur="1.6s" repeatCount="indefinite" begin="0.6s"/>
      <animate attributeName="opacity" values="1;0.45;1" dur="2.0s" repeatCount="indefinite" begin="0.6s"/>
    </circle>
    <circle cx="256" cy="324" r="6">
      <animate attributeName="r" values="6;8;6" dur="2.0s" repeatCount="indefinite" begin="0.2s"/>
      <animate attributeName="opacity" values="1;0.45;1" dur="2.6s" repeatCount="indefinite" begin="0.2s"/>
    </circle>
  </g>

  <g>
    <circle cx="256" cy="248" r="30" fill="url(#gKey)">
      <animate attributeName="r" values="26;34;26" dur="2.8s" repeatCount="indefinite"/>
    </circle>
    <circle cx="256" cy="248" r="14" fill="#0b1220">
      <animate attributeName="fill" values="#0b1220;#374151;#0b1220" dur="3s" repeatCount="indefinite"/>
    </circle>
    <path d="M246 266h20l10 26h-40z" fill="#0b1220"/>
  </g>
</g>
</svg>