<svg xmlns="http://www.w3.org/2000/svg" viewBox="0 0 506 812" width="2024" height="3248" role="img" aria-label="AI Cybersecurity Lab Logo Animated (no shield, sky blue, fading nodes)">
  <defs>
    <!-- Gradient red↔green -->
    <linearGradient id="g1" x1="0" y1="0" x2="1" y2="1">
      <stop offset="0%" stop-color="#16a34a">
        <animate attributeName="stop-color" values="#16a34a;#ef4444;#16a34a" dur="8s" repeatCount="indefinite"/>
      </stop>
      <stop offset="100%" stop-color="#ef4444">
        <animate attributeName="stop-color" values="#ef4444;#16a34a;#ef4444" dur="8s" repeatCount="indefinite"/>
      </stop>
    </linearGradient>
    <!-- Glow for keyhole -->
    <radialGradient id="gKey" cx="50%" cy="50%" r="50%">
      <stop offset="0%" stop-color="#16a34a" stop-opacity="0.6">
        <animate attributeName="stop-color" values="#16a34a;#ef4444;#16a34a" dur="6s" repeatCount="indefinite"/>
        <animate attributeName="stop-opacity" values="0.6;0.15;0.6" dur="3s" repeatCount="indefinite"/>
      </stop>
      <stop offset="100%" stop-color="#16a34a" stop-opacity="0"/>
    </radialGradient>
  </defs>

  <g transform="translate(253 406) scale(2.0) translate(-256 -256)">
    <!-- Brain lobes -->
    <path d="M245 180c-34 0-60 18-60 52 0 7 1 13 3 18-18 7-31 24-31 43 0 22 15 40 35 46-1 3-1 6-1 9 0 25 20 45 45 45h9"
          fill="none" stroke="#38bdf8" stroke-width="40" stroke-linecap="round" stroke-linejoin="round"/>
    <path d="M267 180c34 0 60 18 60 52 0 7-1 13-3 18 18 7 31 24 31 43 0 22-15 40-35 46 1 3 1 6 1 9 0 25-20 45-45 45h-9"
          fill="none" stroke="#38bdf8" stroke-width="40" stroke-linecap="round" stroke-linejoin="round"/>

    <!-- Circuit links -->
    <g fill="none" stroke="#38bdf8" stroke-width="32" stroke-linecap="round" stroke-linejoin="round">
      <line x1="256" y1="240" x2="200" y2="220"/>
      <line x1="256" y1="240" x2="312" y2="220"/>
      <line x1="256" y1="280" x2="200" y2="310"/>
      <line x1="256" y1="280" x2="312" y2="310"/>
      <line x1="256" y1="220" x2="256" y2="196"/>
      <line x1="256" y1="300" x2="256" y2="324"/>
    </g>

    <!-- Nodes animated appear/disappear -->
    <g fill="url(#g1)">
      <circle cx="256" cy="240" r="14">
        <animate attributeName="opacity" values="1;0;1" dur="2s" repeatCount="indefinite"/>
      </circle>
      <circle cx="200" cy="220" r="11">
        <animate attributeName="opacity" values="1;0;1" dur="1.6s" repeatCount="indefinite" begin="0.3s"/>
      </circle>
      <circle cx="312" cy="220" r="11">
        <animate attributeName="opacity" values="1;0;1" dur="1.8s" repeatCount="indefinite" begin="0.6s"/>
      </circle>
      <circle cx="200" cy="310" r="11">
        <animate attributeName="opacity" values="1;0;1" dur="1.9s" repeatCount="indefinite" begin="0.9s"/>
      </circle>
      <circle cx="312" cy="310" r="11">
        <animate attributeName="opacity" values="1;0;1" dur="2.1s" repeatCount="indefinite" begin="1.2s"/>
      </circle>
      <circle cx="256" cy="196" r="9">
        <animate attributeName="opacity" values="1;0;1" dur="1.7s" repeatCount="indefinite" begin="0.5s"/>
      </circle>
      <circle cx="256" cy="324" r="9">
        <animate attributeName="opacity" values="1;0;1" dur="2.2s" repeatCount="indefinite" begin="0.7s"/>
      </circle>
    </g>

    <!-- Keyhole glow -->
    <g>
      <circle cx="256" cy="248" r="30" fill="url(#gKey)">
        <animate attributeName="r" values="26;40;26" dur="2.8s" repeatCount="indefinite"/>
      </circle>
      <circle cx="256" cy="248" r="20" fill="#38bdf8">
        <animate attributeName="fill" values="#38bdf8;#7dd3fc;#38bdf8" dur="3s" repeatCount="indefinite"/>
      </circle>
      <path d="M246 266h20l10 26h-40z" fill="#38bdf8"/>
    </g>
  </g>
</svg>